<svg xmlns="http://www.w3.org/2000/svg" xmlns:xlink="http://www.w3.org/1999/xlink" width="500" zoomAndPan="magnify" viewBox="0 0 375.12 383.03998" height="500" preserveAspectRatio="xMidYMid meet" version="1.0"><defs><g/><clipPath id="2bfd1e80e5"><path d="M 29.609375 29.578125 L 344.515625 29.578125 L 344.515625 344.484375 L 29.609375 344.484375 Z M 29.609375 29.578125 " clip-rule="nonzero"/></clipPath><clipPath id="23c64c4ed3"><path d="M 187.0625 29.578125 C 100.101562 29.578125 29.609375 100.070312 29.609375 187.03125 C 29.609375 273.992188 100.101562 344.484375 187.0625 344.484375 C 274.019531 344.484375 344.515625 273.992188 344.515625 187.03125 C 344.515625 100.070312 274.019531 29.578125 187.0625 29.578125 Z M 187.0625 29.578125 " clip-rule="nonzero"/></clipPath><clipPath id="7724c28f98"><path d="M 0.609375 0.578125 L 315.515625 0.578125 L 315.515625 315.484375 L 0.609375 315.484375 Z M 0.609375 0.578125 " clip-rule="nonzero"/></clipPath><clipPath id="138cd39a47"><path d="M 158.0625 0.578125 C 71.101562 0.578125 0.609375 71.070312 0.609375 158.03125 C 0.609375 244.992188 71.101562 315.484375 158.0625 315.484375 C 245.019531 315.484375 315.515625 244.992188 315.515625 158.03125 C 315.515625 71.070312 245.019531 0.578125 158.0625 0.578125 Z M 158.0625 0.578125 " clip-rule="nonzero"/></clipPath><clipPath id="d7895eb61c"><rect x="0" width="316" y="0" height="316"/></clipPath></defs><g clip-path="url(#2bfd1e80e5)"><g clip-path="url(#23c64c4ed3)"><g transform="matrix(1, 0, 0, 1, 29, 29)"><g clip-path="url(#d7895eb61c)"><g clip-path="url(#7724c28f98)"><g clip-path="url(#138cd39a47)"><path fill="#ffffff" d="M 0.609375 0.578125 L 315.515625 0.578125 L 315.515625 315.484375 L 0.609375 315.484375 Z M 0.609375 0.578125 " fill-opacity="1" fill-rule="nonzero"/></g></g></g></g></g></g><g fill="#36298c" fill-opacity="1"><g transform="translate(323.068016, 82.462012)"><g><path d="M -10.878906 94.117188 L -220.601562 94.117188 C -206.726562 83.507812 -188.777344 66.371094 -176.535156 49.507812 L -192.855469 39.984375 C -211.082031 63.921875 -238.28125 87.859375 -262.492188 103.363281 C -238.28125 118.867188 -211.082031 142.804688 -192.855469 166.742188 L -176.535156 157.222656 C -188.777344 140.359375 -206.726562 123.222656 -220.601562 112.613281 L -10.878906 112.613281 Z M -10.878906 94.117188 "/></g></g></g></svg>